<?xml version="1.0" encoding="UTF-8" standalone="no"?>
<!-- Created with Inkscape (http://www.inkscape.org/) -->
<svg
   xmlns:dc="http://purl.org/dc/elements/1.1/"
   xmlns:cc="http://web.resource.org/cc/"
   xmlns:rdf="http://www.w3.org/1999/02/22-rdf-syntax-ns#"
   xmlns:svg="http://www.w3.org/2000/svg"
   xmlns="http://www.w3.org/2000/svg"
   xmlns:sodipodi="http://sodipodi.sourceforge.net/DTD/sodipodi-0.dtd"
   xmlns:inkscape="http://www.inkscape.org/namespaces/inkscape"
   version="1.0"
   width="350"
   height="200"
   id="svg2"
   sodipodi:version="0.32"
   inkscape:version="0.45.1"
   sodipodi:docname="Maximum Power Transfer Graph.svg"
   sodipodi:docbase="C:\Documents and Settings\JJB\My Documents\My Pictures\Electronics\Illustrations\Circuit Theory"
   inkscape:output_extension="org.inkscape.output.svg.inkscape">
  <sodipodi:namedview
     inkscape:window-height="874"
     inkscape:window-width="1329"
     inkscape:pageshadow="2"
     inkscape:pageopacity="0.0"
     guidetolerance="10.0"
     gridtolerance="10000"
     objecttolerance="10.0"
     borderopacity="1.0"
     bordercolor="#666666"
     pagecolor="#ffffff"
     id="base"
     showgrid="false"
     gridspacingx="5px"
     gridspacingy="5px"
     inkscape:grid-points="true"
     width="350px"
     inkscape:zoom="1.4142136"
     inkscape:cx="190.17933"
     inkscape:cy="155.26005"
     inkscape:window-x="102"
     inkscape:window-y="0"
     inkscape:current-layer="g3223"
     height="200px" />
  <metadata
     id="metadata6376">
    <rdf:RDF>
      <cc:Work
         rdf:about="">
        <dc:format>image/svg+xml</dc:format>
        <dc:type
           rdf:resource="http://purl.org/dc/dcmitype/StillImage" />
      </cc:Work>
    </rdf:RDF>
  </metadata>
  <defs
     id="defs3">
    <marker
       style="overflow:visible"
       orient="auto"
       refY="0"
       id="Arrow2Mend"
       refX="0">
      <path
         style="font-size:12px;fill-rule:evenodd;stroke-width:0.625;stroke-linejoin:round"
         id="path3052"
         transform="matrix(-0.6,0,0,-0.6,3,0)"
         d="M 8.7185878,4.0337352 L -2.2072895,0.016013256 L 8.7185884,-4.0017078 C 6.97309,-1.6296469 6.9831476,1.6157441 8.7185878,4.0337352 z " />
    </marker>
    <marker
       style="overflow:visible"
       orient="auto"
       refY="0"
       id="Arrow1Mstart"
       refX="0">
      <path
         style="fill-rule:evenodd;stroke:#000000;stroke-width:1pt;marker-start:none"
         id="path3060"
         transform="scale(0.4,0.4)"
         d="M 0,0 L 5,-5 L -12.5,0 L 5,5 L 0,0 z " />
    </marker>
  </defs>
  <path
     style="fill:none;fill-rule:evenodd;stroke:#000000;stroke-width:1px;stroke-linecap:butt;stroke-linejoin:miter;stroke-opacity:1"
     d="M 71.017808,87.5 L 329.99999,87.5"
     id="path4843" />
  <rect
     style="opacity:1;fill:#4682b4;fill-opacity:0.11764706;fill-rule:nonzero;stroke:none;stroke-width:2;stroke-linecap:square;stroke-miterlimit:0;stroke-dasharray:none;stroke-dashoffset:0;stroke-opacity:1"
     id="rect3860"
     width="250"
     y="25"
     x="75"
     height="125" />
  <path
     style="fill:#ff0000;fill-rule:evenodd;stroke:#ff0000;stroke-width:0.99999994px;stroke-linecap:butt;stroke-linejoin:miter;stroke-opacity:1"
     d="M 125.5,24.500493 L 125.5,149.4995"
     id="path2358" />
  <g
     style="font-size:4.55728769px;fill:none;stroke:#ff0000;stroke-width:0.853297;font-family:&quot;Courier New&quot;, Courier, Symbol, monospace"
     id="g2327"
     transform="matrix(2.7378798,0,0,-2.0065277,76.499986,149.51024)">
    <path
       style="fill:none;stroke:#ff0000;stroke-width:0.85329705"
       d="M 4.7849145e-006,6.50562e-005 C 1.6485446,17.46166 2.3404758,35.424588 7.8898997,52.04646 C 9.4910736,57.591297 14.158995,62.902091 19.818471,61.6889 C 30.857327,59.039538 40.551349,52.101337 51.10696,47.861611 C 63.989878,42.095643 77.36555,37.753183 90.91334,34.335201"
       id="polyline2329" />
  </g>
  <path
     style="fill:none;fill-rule:evenodd;stroke:#000000;stroke-width:1px;stroke-linecap:butt;stroke-linejoin:miter;stroke-opacity:1"
     d="M 175.5,25 L 175.5,149.5"
     id="path2360" />
  <path
     style="fill:none;fill-rule:evenodd;stroke:#000000;stroke-width:1px;stroke-linecap:butt;stroke-linejoin:miter;stroke-opacity:1"
     d="M 225.5,25 L 225.5,149.5"
     id="path2362" />
  <path
     style="fill:none;fill-rule:evenodd;stroke:#000000;stroke-width:1px;stroke-linecap:butt;stroke-linejoin:miter;stroke-opacity:1"
     d="M 275.5,25 L 275.5,149.5"
     id="path2364" />
  <path
     style="fill:none;fill-rule:evenodd;stroke:#000000;stroke-width:1px;stroke-linecap:butt;stroke-linejoin:miter;stroke-opacity:1"
     d="M 75.5,74.5 L 325.5,74.5"
     id="path2366" />
  <path
     style="fill:none;fill-rule:evenodd;stroke:#000000;stroke-width:1px;stroke-linecap:butt;stroke-linejoin:miter;stroke-opacity:1"
     d="M 325.5,99.5 L 75.5,99.5"
     id="path2368" />
  <path
     style="fill:none;fill-rule:evenodd;stroke:#000000;stroke-width:1px;stroke-linecap:butt;stroke-linejoin:miter;stroke-opacity:1"
     d="M 75.5,124.5 L 325.5,124.5"
     id="path2370" />
  <path
     style="fill:none;fill-rule:evenodd;stroke:#000000;stroke-width:1px;stroke-linecap:butt;stroke-linejoin:miter;stroke-opacity:1"
     d="M 75.5,49.5 L 325.5,49.5"
     id="path2372" />
  <text
     style="font-size:16px;font-style:normal;font-variant:normal;font-weight:normal;font-stretch:normal;text-align:start;line-height:100%;writing-mode:lr-tb;text-anchor:start;fill:#000000;fill-opacity:1;stroke:none;stroke-width:1px;stroke-linecap:butt;stroke-linejoin:miter;stroke-opacity:1;font-family:Verdana"
     id="text2374"
     sodipodi:linespacing="100%"
     y="169.5"
     x="70.5"
     xml:space="preserve"><tspan
       sodipodi:role="line"
       id="tspan2376"
       y="169.5"
       x="70.5">0</tspan></text>
  <path
     style="fill:none;fill-rule:evenodd;stroke:#000000;stroke-width:1px;stroke-linecap:butt;stroke-linejoin:miter;stroke-opacity:1"
     d="M 70.5,149.5 L 75.5,149.5 L 75.5,154.5"
     id="path2422" />
  <g
     id="g4849">
    <text
       style="font-size:16px;font-style:normal;font-variant:normal;font-weight:normal;font-stretch:normal;text-align:end;line-height:100%;writing-mode:lr-tb;text-anchor:end;fill:#000000;fill-opacity:1;stroke:none;stroke-width:1px;stroke-linecap:butt;stroke-linejoin:miter;stroke-opacity:1;font-family:Verdana"
       id="text3527"
       sodipodi:linespacing="100%"
       y="130.5"
       x="67"
       xml:space="preserve"><tspan
         sodipodi:role="line"
         id="tspan3529"
         y="130.5"
         x="67">0.2</tspan></text>
    <text
       style="font-size:16px;font-style:normal;font-variant:normal;font-weight:normal;font-stretch:normal;text-align:end;line-height:100%;writing-mode:lr-tb;text-anchor:end;fill:#000000;fill-opacity:1;stroke:none;stroke-width:1px;stroke-linecap:butt;stroke-linejoin:miter;stroke-opacity:1;font-family:Verdana"
       id="text3531"
       sodipodi:linespacing="100%"
       y="105.5"
       x="66.5"
       xml:space="preserve"><tspan
         sodipodi:role="line"
         id="tspan3533"
         y="105.5"
         x="66.5">0.4</tspan></text>
    <text
       style="font-size:16px;font-style:normal;font-variant:normal;font-weight:normal;font-stretch:normal;text-align:end;line-height:100%;writing-mode:lr-tb;text-anchor:end;fill:#000000;fill-opacity:1;stroke:none;stroke-width:1px;stroke-linecap:butt;stroke-linejoin:miter;stroke-opacity:1;font-family:Verdana"
       id="text3535"
       sodipodi:linespacing="100%"
       y="80.367188"
       x="66.695313"
       xml:space="preserve"><tspan
         sodipodi:role="line"
         id="tspan3537"
         y="80.367188"
         x="66.695313">0.6</tspan></text>
    <text
       style="font-size:16px;font-style:normal;font-variant:normal;font-weight:normal;font-stretch:normal;text-align:end;line-height:100%;writing-mode:lr-tb;text-anchor:end;fill:#000000;fill-opacity:1;stroke:none;stroke-width:1px;stroke-linecap:butt;stroke-linejoin:miter;stroke-opacity:1;font-family:Verdana"
       id="text3539"
       sodipodi:linespacing="100%"
       y="55.234375"
       x="66.429688"
       xml:space="preserve"><tspan
         sodipodi:role="line"
         id="tspan3541"
         y="55.234375"
         x="66.429688">0.8</tspan></text>
    <text
       style="font-size:16px;font-style:normal;font-variant:normal;font-weight:normal;font-stretch:normal;text-align:end;line-height:100%;writing-mode:lr-tb;text-anchor:end;fill:#000000;fill-opacity:1;stroke:none;stroke-width:1px;stroke-linecap:butt;stroke-linejoin:miter;stroke-opacity:1;font-family:Verdana"
       id="text3543"
       sodipodi:linespacing="100%"
       y="30.367188"
       x="66.882813"
       xml:space="preserve"><tspan
         sodipodi:role="line"
         id="tspan3545"
         y="30.367188"
         x="66.882813">1.0</tspan></text>
    <text
       style="font-size:16px;font-style:normal;font-variant:normal;font-weight:normal;font-stretch:normal;text-align:end;line-height:100%;writing-mode:lr-tb;text-anchor:end;fill:#000000;fill-opacity:1;stroke:none;stroke-width:1px;stroke-linecap:butt;stroke-linejoin:miter;stroke-opacity:1;font-family:Verdana"
       id="text3547"
       sodipodi:linespacing="100%"
       y="155.36719"
       x="66.882813"
       xml:space="preserve"><tspan
         sodipodi:role="line"
         id="tspan3549"
         y="155.36719"
         x="66.882813">0.0</tspan></text>
  </g>
  <text
     style="font-size:16px;font-style:normal;font-variant:normal;font-weight:normal;font-stretch:normal;text-align:start;line-height:100%;writing-mode:lr-tb;text-anchor:start;fill:#000000;fill-opacity:1;stroke:none;stroke-width:1px;stroke-linecap:butt;stroke-linejoin:miter;stroke-opacity:1;font-family:Verdana"
     id="text3555"
     sodipodi:linespacing="100%"
     y="169.5"
     x="120"
     xml:space="preserve"><tspan
       sodipodi:role="line"
       id="tspan3557"
       y="169.5"
       x="120">1</tspan></text>
  <text
     style="font-size:16px;font-style:normal;font-variant:normal;font-weight:normal;font-stretch:normal;text-align:start;line-height:100%;writing-mode:lr-tb;text-anchor:start;fill:#000000;fill-opacity:1;stroke:none;stroke-width:1px;stroke-linecap:butt;stroke-linejoin:miter;stroke-opacity:1;font-family:Verdana"
     id="text3559"
     sodipodi:linespacing="100%"
     y="169.375"
     x="170.36719"
     xml:space="preserve"><tspan
       sodipodi:role="line"
       id="tspan3561"
       y="169.375"
       x="170.36719">2</tspan></text>
  <text
     style="font-size:16px;font-style:normal;font-variant:normal;font-weight:normal;font-stretch:normal;text-align:start;line-height:100%;writing-mode:lr-tb;text-anchor:start;fill:#000000;fill-opacity:1;stroke:none;stroke-width:1px;stroke-linecap:butt;stroke-linejoin:miter;stroke-opacity:1;font-family:Verdana"
     id="text3563"
     sodipodi:linespacing="100%"
     y="169.25781"
     x="220.69531"
     xml:space="preserve"><tspan
       sodipodi:role="line"
       id="tspan3565"
       y="169.25781"
       x="220.69531">3</tspan></text>
  <text
     style="font-size:16px;font-style:normal;font-variant:normal;font-weight:normal;font-stretch:normal;text-align:start;line-height:100%;writing-mode:lr-tb;text-anchor:start;fill:#000000;fill-opacity:1;stroke:none;stroke-width:1px;stroke-linecap:butt;stroke-linejoin:miter;stroke-opacity:1;font-family:Verdana"
     id="text3567"
     sodipodi:linespacing="100%"
     y="169.5"
     x="271"
     xml:space="preserve"><tspan
       sodipodi:role="line"
       id="tspan3569"
       y="169.5"
       x="271">4</tspan></text>
  <text
     style="font-size:16px;font-style:normal;font-variant:normal;font-weight:normal;font-stretch:normal;text-align:start;line-height:100%;writing-mode:lr-tb;text-anchor:start;fill:#000000;fill-opacity:1;stroke:none;stroke-width:1px;stroke-linecap:butt;stroke-linejoin:miter;stroke-opacity:1;font-family:Verdana"
     id="text3571"
     sodipodi:linespacing="100%"
     y="169.5"
     x="321"
     xml:space="preserve"><tspan
       sodipodi:role="line"
       id="tspan3573"
       y="169.5"
       x="321">5</tspan></text>
  <g
     style="font-size:5.03701258px;fill:#000000;stroke:#000000;stroke-width:0.10141687pt;font-family:&quot;Courier New&quot;, Courier, Symbol, monospace"
     transform="matrix(0.9960298,0,0,-0.9906293,-69.29171,13.404335)"
     id="root">
    <path
       style="fill:none;stroke:#191970;stroke-width:2.01343775"
       d="M 145.86711,-136.88718 C 156.38744,-109.82679 175.29092,-82.660686 210.06529,-66.265158 C 255.30875,-45.19989 311.24256,-39.648366 364.39761,-34.516563 C 374.87006,-33.58799 385.3685,-32.799432 395.87111,-32.045965"
       id="polyline3706" />
  </g>
  <path
     style="fill:none;fill-opacity:0.11764706;fill-rule:evenodd;stroke:#000000;stroke-width:1px;stroke-linecap:butt;stroke-linejoin:miter;stroke-opacity:1"
     d="M 75.5,24.375623 L 75.5,149.5 L 325.45462,149.5 L 325.45462,24.375623 L 75.5,24.375623 z "
     sodipodi:nodetypes="ccccc"
     id="path2356" />
  <g
     id="g2709"
     transform="matrix(1.5,0,0,1.5,-162.0286,-52.799993)">
    <g
       style="font-style:normal;font-variant:normal;font-weight:normal;font-stretch:normal;letter-spacing:normal;word-spacing:normal;text-anchor:start;fill:none;fill-opacity:1;fill-rule:evenodd;stroke:#000000;stroke-width:0.66666669;stroke-linecap:butt;stroke-linejoin:miter;stroke-miterlimit:10.43299961;stroke-dasharray:none;stroke-dashoffset:0;stroke-opacity:1"
       id="g2711"
       xml:space="preserve"
       transform="matrix(0.2857143,0,0,-0.2857143,-50,262.5)"><path
         style="fill:#000000;stroke-width:0"
         id="path2713"
         d="M 1189.8,362.94 L 1190.3,363.05 L 1190.8,363.17 L 1191.3,363.31 L 1191.8,363.46 L 1192.2,363.62 L 1192.7,363.8 L 1193.2,363.99 L 1193.7,364.19 L 1194.2,364.41 L 1194.6,364.64 L 1195.1,364.88 L 1195.5,365.13 L 1196,365.4 L 1196.4,365.68 L 1196.8,365.97 L 1197.2,366.27 L 1197.6,366.58 L 1198,366.9 L 1198.3,367.24 L 1198.7,367.59 L 1199,367.94 L 1199.3,368.31 L 1199.6,368.69 L 1199.8,369.08 L 1200,369.48 L 1200.2,369.89 L 1200.4,370.31 L 1200.5,370.74 L 1200.7,371.18 L 1200.7,371.63 L 1200.8,372.08 L 1200.8,372.55 C 1200.8,376.84 1196.3,380.02 1189.8,380.02 L 1175.6,380.02 C 1174.6,380.02 1174.2,380.02 1174.2,379.03 C 1174.2,378.48 1174.6,378.48 1175.6,378.48 C 1175.7,378.48 1176.6,378.48 1177.4,378.38 C 1178.3,378.28 1178.8,378.23 1178.8,377.58 C 1178.8,377.38 1178.8,377.23 1178.6,376.64 L 1171.9,349.89 C 1171.4,347.94 1171.3,347.54 1167.4,347.54 C 1166.5,347.54 1166,347.54 1166,346.55 C 1166,346 1166.6,346 1166.7,346 C 1168.1,346 1171.6,346.15 1173,346.15 C 1174.4,346.15 1177.9,346 1179.3,346 C 1179.7,346 1180.3,346 1180.3,347 C 1180.3,347.54 1179.9,347.54 1178.9,347.54 C 1177.1,347.54 1175.7,347.54 1175.7,348.44 C 1175.7,348.74 1175.8,348.99 1175.9,349.29 L 1179.1,362.49 L 1185.1,362.49 L 1185,363.59 L 1179.4,363.59 L 1182.7,376.59 C 1183,377.78 1183.1,378.28 1184.1,378.43 C 1184.5,378.48 1186.1,378.48 1187.1,378.48 C 1190.7,378.48 1196.2,378.48 1196.2,373.55 C 1196.2,371.85 1195.4,368.41 1193.4,366.47 C 1192.1,365.18 1189.5,363.59 1185,363.59 L 1185.1,362.49 C 1189.6,362.49 1190.5,359.7 1190.5,357.96 C 1190.5,357.21 1190.1,355.66 1189.8,354.52 C 1189.4,353.13 1189,351.28 1189,350.29 C 1189,344.9 1195,344.9 1195.6,344.9 C 1199.9,344.9 1201.6,349.93 1201.6,350.63 C 1201.6,351.23 1201.1,351.23 1201,351.23 C 1200.6,351.23 1200.5,350.88 1200.4,350.53 C 1199.1,346.85 1197,346 1195.8,346 C 1194.2,346 1193.8,347.1 1193.8,349.04 C 1193.8,350.58 1194.1,353.13 1194.3,354.72 C 1194.4,355.41 1194.5,356.36 1194.5,357.06 C 1194.5,360.89 1191.2,362.44 1189.8,362.94 z " /><path
         style="fill:#000000;stroke-width:0"
         id="path2715"
         d="M 1216.4,359.96 L 1216.4,360.07 L 1216.4,360.18 L 1216.5,360.29 L 1216.5,360.39 L 1216.5,360.48 L 1216.5,360.57 L 1216.6,360.66 L 1216.6,360.74 L 1216.7,360.81 L 1216.7,360.88 L 1216.8,360.95 L 1216.8,361.01 L 1216.9,361.07 L 1216.9,361.13 L 1217,361.18 L 1217.1,361.23 L 1217.2,361.27 L 1217.3,361.31 L 1217.4,361.35 L 1217.5,361.38 L 1217.6,361.4 L 1217.7,361.41 L 1217.7,361.43 L 1217.8,361.44 L 1217.9,361.45 L 1218,361.46 L 1218,361.47 L 1218.1,361.49 L 1218.2,361.49 L 1218.3,361.5 L 1218.4,361.51 L 1218.5,361.52 L 1218.6,361.53 L 1218.7,361.53 L 1218.8,361.54 L 1218.9,361.54 L 1219,361.55 L 1219.2,361.55 L 1219.3,361.55 L 1219.4,361.55 L 1219.6,361.56 L 1219.7,361.56 L 1219.8,361.56 L 1220,361.56 C 1221.1,361.56 1221.4,361.56 1221.4,362.33 C 1221.4,362.36 1221.4,362.82 1220.8,362.82 C 1220,362.82 1219.1,362.75 1218.3,362.71 C 1217.4,362.68 1216.3,362.68 1215.5,362.68 C 1214.7,362.68 1213.8,362.71 1213.1,362.71 C 1212.3,362.71 1211.5,362.82 1210.8,362.82 C 1210.6,362.82 1210.1,362.82 1210.1,362.05 C 1210.1,361.56 1210.5,361.56 1211.2,361.56 C 1211.2,361.56 1211.9,361.56 1212.5,361.49 C 1213.2,361.42 1213.3,361.35 1213.3,361 C 1213.3,360.93 1213.3,360.76 1213.2,360.23 L 1208.5,341.72 C 1208.2,340.54 1208.1,340.25 1205.4,340.25 C 1204.9,340.25 1204.4,340.25 1204.4,339.52 C 1204.4,339 1204.8,339 1205.4,339 L 1223,339 C 1223.9,339 1223.9,339.04 1224.2,339.7 C 1224.5,340.64 1227.1,347.4 1227.1,347.68 C 1227.1,347.79 1227.1,348.17 1226.6,348.17 C 1226.1,348.17 1226.1,348 1225.8,347.44 C 1224.5,344.13 1223,340.25 1216.6,340.25 L 1212.7,340.25 C 1211.6,340.25 1211.6,340.29 1211.6,340.61 C 1211.6,340.64 1211.6,340.81 1211.7,341.34 L 1216.4,359.96 z " /><path
         style="fill:#000000;stroke-width:0"
         id="path2717"
         d="M 1253.9,381.47 L 1253.9,381.5 L 1253.9,381.53 L 1253.9,381.56 L 1253.9,381.58 L 1253.9,381.61 L 1253.9,381.64 L 1254,381.69 L 1254,381.74 L 1254,381.79 L 1254,381.83 L 1254,381.87 L 1254,381.91 L 1254,381.95 L 1254,381.99 L 1254.1,382.02 L 1254.1,382.05 L 1254.1,382.08 L 1254.1,382.11 L 1254.1,382.14 L 1254.1,382.16 L 1254.1,382.19 L 1254.1,382.21 L 1254.1,382.23 L 1254.1,382.25 L 1254.1,382.26 L 1254.1,382.28 L 1254.1,382.29 L 1254.1,382.31 L 1254.1,382.32 L 1254.1,382.33 L 1254.1,382.34 L 1254.1,382.34 L 1254.1,382.35 L 1254.1,382.36 L 1254.1,382.36 C 1254.1,382.91 1253.7,383.36 1253.1,383.36 C 1252.8,383.36 1252.4,383.21 1252.3,382.91 L 1235,335.44 C 1234.7,334.79 1234.7,334.59 1234.7,334.54 C 1234.7,334 1235.2,333.55 1235.7,333.55 C 1236.4,333.55 1236.5,333.89 1236.8,334.74 L 1253.9,381.47 z " /><path
         style="fill:#000000;stroke-width:0"
         id="path2719"
         d="M 1282.8,362.94 L 1283.3,363.05 L 1283.8,363.17 L 1284.3,363.31 L 1284.8,363.46 L 1285.2,363.62 L 1285.7,363.8 L 1286.2,363.99 L 1286.7,364.19 L 1287.2,364.41 L 1287.6,364.64 L 1288.1,364.88 L 1288.5,365.13 L 1289,365.4 L 1289.4,365.68 L 1289.8,365.97 L 1290.2,366.27 L 1290.6,366.58 L 1291,366.9 L 1291.3,367.24 L 1291.7,367.59 L 1292,367.94 L 1292.3,368.31 L 1292.6,368.69 L 1292.8,369.08 L 1293,369.48 L 1293.2,369.89 L 1293.4,370.31 L 1293.5,370.74 L 1293.7,371.18 L 1293.7,371.63 L 1293.8,372.08 L 1293.8,372.55 C 1293.8,376.84 1289.3,380.02 1282.8,380.02 L 1268.6,380.02 C 1267.6,380.02 1267.2,380.02 1267.2,379.03 C 1267.2,378.48 1267.6,378.48 1268.6,378.48 C 1268.7,378.48 1269.6,378.48 1270.4,378.38 C 1271.3,378.28 1271.8,378.23 1271.8,377.58 C 1271.8,377.38 1271.8,377.23 1271.6,376.64 L 1264.9,349.89 C 1264.4,347.94 1264.3,347.54 1260.4,347.54 C 1259.5,347.54 1259,347.54 1259,346.55 C 1259,346 1259.6,346 1259.7,346 C 1261.1,346 1264.6,346.15 1266,346.15 C 1267.4,346.15 1270.9,346 1272.3,346 C 1272.7,346 1273.3,346 1273.3,347 C 1273.3,347.54 1272.9,347.54 1271.9,347.54 C 1270.1,347.54 1268.7,347.54 1268.7,348.44 C 1268.7,348.74 1268.8,348.99 1268.9,349.29 L 1272.1,362.49 L 1278.1,362.49 L 1278,363.59 L 1272.4,363.59 L 1275.7,376.59 C 1276,377.78 1276.1,378.28 1277.1,378.43 C 1277.5,378.48 1279.1,378.48 1280.1,378.48 C 1283.7,378.48 1289.2,378.48 1289.2,373.55 C 1289.2,371.85 1288.4,368.41 1286.4,366.47 C 1285.1,365.18 1282.5,363.59 1278,363.59 L 1278.1,362.49 C 1282.6,362.49 1283.5,359.7 1283.5,357.96 C 1283.5,357.21 1283.1,355.66 1282.8,354.52 C 1282.4,353.13 1282,351.28 1282,350.29 C 1282,344.9 1288,344.9 1288.6,344.9 C 1292.9,344.9 1294.6,349.93 1294.6,350.63 C 1294.6,351.23 1294.1,351.23 1294,351.23 C 1293.6,351.23 1293.5,350.88 1293.4,350.53 C 1292.1,346.85 1290,346 1288.8,346 C 1287.2,346 1286.8,347.1 1286.8,349.04 C 1286.8,350.58 1287.1,353.13 1287.3,354.72 C 1287.4,355.41 1287.5,356.36 1287.5,357.06 C 1287.5,360.89 1284.2,362.44 1282.8,362.94 z " /><path
         style="fill:#000000;stroke-width:0"
         id="path2721"
         d="M 1310,352.11 L 1309.9,352.09 L 1309.9,352.06 L 1309.8,352.04 L 1309.7,352.01 L 1309.6,351.98 L 1309.6,351.94 L 1309.5,351.9 L 1309.4,351.86 L 1309.3,351.82 L 1309.3,351.78 L 1309.2,351.73 L 1309.2,351.68 L 1309.1,351.63 L 1309.1,351.58 L 1309,351.53 L 1309,351.47 L 1308.9,351.42 L 1308.9,351.36 L 1308.8,351.3 L 1308.8,351.24 L 1308.8,351.18 L 1308.7,351.12 L 1308.7,351.06 L 1308.7,350.99 L 1308.6,350.93 L 1308.6,350.86 L 1308.6,350.8 L 1308.6,350.73 L 1308.6,350.67 L 1308.6,350.6 L 1308.6,350.54 L 1308.6,350.47 C 1308.6,349.67 1309.3,349.36 1309.7,349.36 C 1310.1,349.36 1311.4,349.57 1311.4,351.34 C 1311.4,353.61 1308.9,354.38 1306.8,354.38 C 1301.3,354.38 1300.3,350.37 1300.3,349.29 C 1300.3,348 1301.1,347.16 1301.6,346.74 C 1302.5,346.04 1303.1,345.9 1305.5,345.48 C 1306.2,345.35 1308.5,344.93 1308.5,343.18 C 1308.5,342.59 1308.1,341.27 1306.6,340.39 C 1305.3,339.63 1303.5,339.63 1303.1,339.63 C 1301.7,339.63 1299.7,339.94 1298.9,341.09 C 1300.1,341.23 1300.9,342.1 1300.9,343.08 C 1300.9,343.95 1300.2,344.37 1299.5,344.37 C 1298.5,344.37 1297.5,343.57 1297.5,342.04 C 1297.5,339.94 1299.7,338.65 1303.1,338.65 C 1309.5,338.65 1310.7,343.04 1310.7,344.41 C 1310.7,347.61 1307.2,348.24 1305.9,348.48 C 1305.6,348.55 1304.7,348.7 1304.5,348.76 C 1303.2,349.01 1302.6,349.74 1302.6,350.51 C 1302.6,351.31 1303.2,352.25 1304,352.74 C 1304.9,353.33 1306.1,353.4 1306.7,353.4 C 1307.4,353.4 1309.3,353.3 1310,352.11 z " /></g>  </g>
  <g
     id="g3223"
     transform="matrix(0,-1.5,1.5,0,-304.45285,523.84289)">
    <g
       id="g3225"
       transform="matrix(0.2857143,0,0,-0.2857143,-60.457137,318.49994)"
       style="font-style:normal;font-variant:normal;font-weight:normal;font-stretch:normal;letter-spacing:normal;word-spacing:normal;text-anchor:start;fill:none;fill-opacity:1;fill-rule:evenodd;stroke:#000000;stroke-width:0.66666669;stroke-linecap:butt;stroke-linejoin:miter;stroke-miterlimit:10.43299961;stroke-dasharray:none;stroke-dashoffset:0;stroke-opacity:1"
       xml:space="preserve"><path
         id="path3227"
         d="M 1110.3,359.8 L 1110.4,359.96 L 1110.4,360.12 L 1110.4,360.28 L 1110.5,360.44 L 1110.5,360.59 L 1110.5,360.75 L 1110.6,360.91 L 1110.6,361.08 L 1110.6,361.24 L 1110.6,361.42 L 1110.7,361.51 L 1110.7,361.6 L 1110.7,361.7 L 1110.7,361.8 L 1110.7,361.9 L 1110.7,362 L 1110.7,362.11 L 1110.7,362.21 L 1110.7,362.33 L 1110.7,362.44 L 1110.7,362.56 L 1110.7,362.69 C 1110.7,365.93 1108.7,368.02 1105,368.02 C 1101,368.02 1098.4,365.43 1097.3,363.68 C 1097,366.52 1094.9,368.02 1092.7,368.02 C 1090.4,368.02 1089.4,366.07 1089,365.18 C 1088.1,363.48 1087.4,360.5 1087.4,360.35 C 1087.4,359.85 1087.9,359.85 1088,359.85 C 1088.5,359.85 1088.6,359.9 1088.9,360.99 C 1089.7,364.53 1090.7,366.92 1092.5,366.92 C 1093.4,366.92 1094.1,366.52 1094.1,364.63 C 1094.1,363.59 1093.9,363.04 1093.3,360.45 L 1090.4,348.94 C 1090.2,348.19 1089.9,347.05 1089.9,346.8 C 1089.9,345.9 1090.6,345.45 1091.4,345.45 C 1092,345.45 1092.9,345.85 1093.2,346.85 C 1093.3,346.95 1093.9,349.29 1094.2,350.53 C 1094.5,352.03 1094.9,353.52 1095.3,355.02 C 1095.6,356.11 1095.9,357.21 1096.1,358.36 C 1096.2,358.65 1096.6,360.3 1096.7,360.59 C 1096.8,361.04 1098.4,363.83 1100.1,365.18 C 1101.1,365.98 1102.7,366.92 1104.8,366.92 C 1107,366.92 1107.5,365.23 1107.5,363.43 C 1107.5,363.18 1107.5,362.29 1107,360.3 L 1101.3,337.38 C 1101.2,336.79 1101.2,336.68 1101.2,336.59 C 1101.2,335.84 1101.7,335.24 1102.6,335.24 C 1104.1,335.24 1104.5,336.68 1104.6,337.23 L 1110.3,359.8 z "
         style="fill:#000080;stroke-width:0" /><path
         id="path3229"
         d="M 1172.7,352.03 L 1172.6,351.66 L 1172.6,351.32 L 1172.6,350.98 L 1172.5,350.66 L 1172.4,350.35 L 1172.3,350.05 L 1172.2,349.77 L 1172,349.5 L 1171.9,349.24 L 1171.8,348.99 L 1171.6,348.76 L 1171.4,348.53 L 1171.2,348.32 L 1171.1,348.12 L 1170.9,347.94 L 1170.7,347.76 L 1170.5,347.6 L 1170.2,347.45 L 1170,347.31 L 1169.8,347.18 L 1169.6,347.06 L 1169.3,346.95 L 1169.1,346.85 L 1168.9,346.77 L 1168.7,346.69 L 1168.4,346.63 L 1168.2,346.57 L 1168,346.53 L 1167.7,346.49 L 1167.5,346.47 L 1167.3,346.45 L 1167.1,346.45 C 1164.4,346.45 1161.8,348.99 1160.2,350.88 C 1162.5,353.52 1164.5,356.91 1166.8,360.84 C 1168.7,364.13 1169.8,365.88 1174.2,365.93 L 1174.2,367.47 C 1172.4,367.37 1169.7,367.32 1169.4,367.32 C 1168.8,367.32 1164.7,367.37 1163.3,367.47 L 1163.3,365.93 C 1165.6,365.93 1166.8,364.98 1166.8,363.73 C 1166.8,363.23 1166.6,362.89 1166.5,362.74 C 1163.8,357.91 1161.6,354.52 1159.4,351.88 C 1158.8,352.63 1153.3,359.45 1151.2,365.18 C 1153.8,368.17 1157.2,371.95 1157.2,375.24 C 1157.2,377.53 1156.4,381.67 1152.9,381.67 L 1153,380.57 C 1156,380.57 1156,375.39 1156,375.29 C 1156,372 1151.9,367.67 1150.8,366.38 L 1150.8,366.38 C 1149.4,370.36 1149.3,373.25 1149.3,374.79 C 1149.3,378.98 1151.3,380.57 1153,380.57 L 1152.9,381.67 C 1149.8,381.67 1146.1,378.93 1146.1,373.64 C 1146.1,371.55 1146.4,367.97 1148.2,363.54 L 1148.6,362.39 C 1149.7,360.05 1150.4,358.55 1152.6,355.46 C 1153.5,354.07 1155.3,351.48 1157.2,349.64 C 1154,346.8 1150.9,346.45 1149.5,346.45 C 1145.4,346.45 1144.2,351.28 1144.2,353.97 C 1144.2,358 1145.9,359.8 1148.6,362.39 L 1148.6,362.39 L 1148.2,363.54 C 1147.2,362.44 1145.1,360.3 1143.6,358.7 C 1141.4,356.41 1140.1,355.07 1140.1,352.38 C 1140.1,348.04 1144.2,344.9 1149.1,344.9 C 1153.3,344.9 1156.3,347.05 1158.1,348.69 C 1161.6,345.7 1164.5,344.9 1166.9,344.9 C 1170.7,344.9 1173.8,347.74 1173.9,352.03 L 1172.7,352.03 z "
         style="fill:#000000;stroke-width:0" /><path
         id="path3231"
         d="M 1216.1,361.74 L 1216.3,363.04 L 1219.7,376.59 C 1220.1,378.33 1220.2,378.48 1222.4,378.48 L 1227.2,378.48 C 1231.3,378.48 1233.9,377.13 1233.9,373.7 C 1233.9,371.75 1232.9,367.47 1231,365.68 C 1228.5,363.43 1225.5,363.04 1223.3,363.04 L 1216.3,363.04 L 1216.1,361.74 L 1224.6,361.74 C 1231.6,361.74 1238.6,366.92 1238.6,372.5 C 1238.6,376.34 1235.3,380.02 1228.8,380.02 L 1212.6,380.02 C 1211.7,380.02 1211.1,380.02 1211.1,379.07 C 1211.1,378.48 1211.6,378.48 1212.6,378.48 C 1213.2,378.48 1214.1,378.43 1214.7,378.38 C 1215.5,378.28 1215.8,378.13 1215.8,377.58 C 1215.8,377.38 1215.8,377.23 1215.6,376.64 L 1208.9,349.89 C 1208.4,347.94 1208.3,347.54 1204.4,347.54 C 1203.5,347.54 1203,347.54 1203,346.6 C 1203,346 1203.6,346 1203.7,346 C 1205.1,346 1208.7,346.15 1210.1,346.15 C 1211.1,346.15 1212.2,346.1 1213.3,346.1 C 1214.3,346.1 1215.4,346 1216.5,346 C 1216.8,346 1217.5,346 1217.5,347 C 1217.5,347.54 1217,347.54 1216.1,347.54 C 1214.3,347.54 1212.9,347.54 1212.9,348.44 C 1212.9,348.74 1213,348.99 1213,349.29 L 1216.1,361.74 z "
         style="fill:#ff0000;stroke-width:0" /><path
         id="path3233"
         d="M 1247.4,359.96 L 1247.4,360.07 L 1247.4,360.18 L 1247.5,360.29 L 1247.5,360.39 L 1247.5,360.48 L 1247.5,360.57 L 1247.6,360.66 L 1247.6,360.74 L 1247.7,360.81 L 1247.7,360.88 L 1247.8,360.95 L 1247.8,361.01 L 1247.9,361.07 L 1247.9,361.13 L 1248,361.18 L 1248.1,361.23 L 1248.2,361.27 L 1248.3,361.31 L 1248.4,361.35 L 1248.5,361.38 L 1248.6,361.4 L 1248.7,361.41 L 1248.7,361.43 L 1248.8,361.44 L 1248.9,361.45 L 1249,361.46 L 1249,361.47 L 1249.1,361.49 L 1249.2,361.49 L 1249.3,361.5 L 1249.4,361.51 L 1249.5,361.52 L 1249.6,361.53 L 1249.7,361.53 L 1249.8,361.54 L 1249.9,361.54 L 1250,361.55 L 1250.2,361.55 L 1250.3,361.55 L 1250.4,361.55 L 1250.6,361.56 L 1250.7,361.56 L 1250.8,361.56 L 1251,361.56 C 1252.1,361.56 1252.4,361.56 1252.4,362.33 C 1252.4,362.36 1252.4,362.82 1251.8,362.82 C 1251,362.82 1250.1,362.75 1249.3,362.71 C 1248.4,362.68 1247.3,362.68 1246.5,362.68 C 1245.7,362.68 1244.8,362.71 1244.1,362.71 C 1243.3,362.71 1242.5,362.82 1241.8,362.82 C 1241.6,362.82 1241.1,362.82 1241.1,362.05 C 1241.1,361.56 1241.5,361.56 1242.2,361.56 C 1242.2,361.56 1242.9,361.56 1243.5,361.49 C 1244.2,361.42 1244.3,361.35 1244.3,361 C 1244.3,360.93 1244.3,360.76 1244.2,360.23 L 1239.5,341.72 C 1239.2,340.54 1239.1,340.25 1236.4,340.25 C 1235.9,340.25 1235.4,340.25 1235.4,339.52 C 1235.4,339 1235.8,339 1236.4,339 L 1254,339 C 1254.9,339 1254.9,339.04 1255.2,339.7 C 1255.5,340.64 1258.1,347.4 1258.1,347.68 C 1258.1,347.79 1258.1,348.17 1257.6,348.17 C 1257.1,348.17 1257.1,348 1256.8,347.44 C 1255.5,344.13 1254,340.25 1247.6,340.25 L 1243.7,340.25 C 1242.6,340.25 1242.6,340.29 1242.6,340.61 C 1242.6,340.64 1242.6,340.81 1242.7,341.34 L 1247.4,359.96 z "
         style="fill:#ff0000;stroke-width:0" /><path
         id="path3235"
         d="M 1284.9,381.47 L 1284.9,381.5 L 1284.9,381.53 L 1284.9,381.56 L 1284.9,381.58 L 1284.9,381.61 L 1284.9,381.64 L 1285,381.69 L 1285,381.74 L 1285,381.79 L 1285,381.83 L 1285,381.87 L 1285,381.91 L 1285,381.95 L 1285,381.99 L 1285.1,382.02 L 1285.1,382.05 L 1285.1,382.08 L 1285.1,382.11 L 1285.1,382.14 L 1285.1,382.16 L 1285.1,382.19 L 1285.1,382.21 L 1285.1,382.23 L 1285.1,382.25 L 1285.1,382.26 L 1285.1,382.28 L 1285.1,382.29 L 1285.1,382.31 L 1285.1,382.32 L 1285.1,382.33 L 1285.1,382.34 L 1285.1,382.34 L 1285.1,382.35 L 1285.1,382.36 L 1285.1,382.36 C 1285.1,382.91 1284.7,383.36 1284.1,383.36 C 1283.8,383.36 1283.4,383.21 1283.3,382.91 L 1266,335.44 C 1265.7,334.79 1265.7,334.59 1265.7,334.54 C 1265.7,334 1266.2,333.55 1266.7,333.55 C 1267.4,333.55 1267.5,333.89 1267.8,334.74 L 1284.9,381.47 z "
         style="fill:#ff0000;stroke-width:0" /><path
         id="path3237"
         d="M 1303.1,361.74 L 1303.3,363.04 L 1306.7,376.59 C 1307.1,378.33 1307.2,378.48 1309.4,378.48 L 1314.2,378.48 C 1318.3,378.48 1320.9,377.13 1320.9,373.7 C 1320.9,371.75 1319.9,367.47 1318,365.68 C 1315.5,363.43 1312.5,363.04 1310.3,363.04 L 1303.3,363.04 L 1303.1,361.74 L 1311.6,361.74 C 1318.6,361.74 1325.6,366.92 1325.6,372.5 C 1325.6,376.34 1322.3,380.02 1315.8,380.02 L 1299.6,380.02 C 1298.7,380.02 1298.1,380.02 1298.1,379.07 C 1298.1,378.48 1298.6,378.48 1299.6,378.48 C 1300.2,378.48 1301.1,378.43 1301.7,378.38 C 1302.5,378.28 1302.8,378.13 1302.8,377.58 C 1302.8,377.38 1302.8,377.23 1302.6,376.64 L 1295.9,349.89 C 1295.4,347.94 1295.3,347.54 1291.4,347.54 C 1290.5,347.54 1290,347.54 1290,346.6 C 1290,346 1290.6,346 1290.7,346 C 1292.1,346 1295.7,346.15 1297.1,346.15 C 1298.1,346.15 1299.2,346.1 1300.3,346.1 C 1301.3,346.1 1302.4,346 1303.5,346 C 1303.8,346 1304.5,346 1304.5,347 C 1304.5,347.54 1304,347.54 1303.1,347.54 C 1301.3,347.54 1299.9,347.54 1299.9,348.44 C 1299.9,348.74 1300,348.99 1300,349.29 L 1303.1,361.74 z "
         style="fill:#ff0000;stroke-width:0" /><path
         id="path3239"
         d="M 1335.1,341.82 L 1335.1,341.76 L 1335.1,341.69 L 1335.1,341.62 L 1335.1,341.54 L 1335,341.47 L 1335,341.39 L 1335,341.23 L 1334.9,341.07 L 1334.9,340.91 L 1334.9,340.75 L 1334.8,340.68 L 1334.8,340.6 L 1334.8,340.52 L 1334.8,340.45 L 1334.8,340.38 L 1334.8,340.31 L 1334.7,340.24 L 1334.7,340.18 L 1334.7,340.12 L 1334.7,340.06 L 1334.7,340.01 L 1334.7,339.96 L 1334.7,339.92 L 1334.7,339.88 L 1334.6,339.84 L 1334.6,339.81 L 1334.6,339.79 L 1334.6,339.77 C 1334.6,339 1335.3,338.65 1335.8,338.65 C 1336.5,338.65 1337,339.11 1337.2,339.42 C 1337.4,339.73 1337.6,340.85 1337.8,341.58 C 1338,342.24 1338.4,343.85 1338.6,344.72 C 1338.8,345.48 1339,346.25 1339.2,347.05 C 1339.6,348.55 1339.6,348.63 1340.3,349.7 C 1341.4,351.41 1343.1,353.4 1345.8,353.4 C 1347.8,353.4 1347.9,351.8 1347.9,350.96 C 1347.9,348.87 1346.4,345 1345.8,343.53 C 1345.4,342.56 1345.3,342.24 1345.3,341.65 C 1345.3,339.8 1346.8,338.65 1348.6,338.65 C 1352.1,338.65 1353.7,343.46 1353.7,343.98 C 1353.7,344.44 1353.2,344.44 1353.1,344.44 C 1352.6,344.44 1352.6,344.23 1352.4,343.85 C 1351.6,341.06 1350.1,339.63 1348.7,339.63 C 1348,339.63 1347.9,340.12 1347.9,340.85 C 1347.9,341.65 1348,342.1 1348.7,343.67 C 1349.1,344.75 1350.5,348.45 1350.5,350.4 C 1350.5,350.96 1350.5,352.43 1349.2,353.44 C 1348.6,353.89 1347.6,354.38 1346,354.38 C 1342.8,354.38 1340.9,352.32 1339.8,350.86 C 1339.5,353.82 1337.1,354.38 1335.3,354.38 C 1332.4,354.38 1330.4,352.6 1329.4,351.2 C 1329.1,353.61 1327.1,354.38 1325.7,354.38 C 1324.2,354.38 1323.3,353.3 1322.9,352.5 C 1322.1,351.2 1321.6,349.21 1321.6,349.04 C 1321.6,348.59 1322.1,348.59 1322.2,348.59 C 1322.7,348.59 1322.8,348.7 1323,349.64 C 1323.5,351.69 1324.2,353.4 1325.5,353.4 C 1326.4,353.4 1326.7,352.63 1326.7,351.69 C 1326.7,351.03 1326.4,349.74 1326.1,348.8 C 1325.9,347.86 1325.5,346.43 1325.4,345.66 L 1324.3,341.2 C 1324.1,340.74 1323.9,339.87 1323.9,339.77 C 1323.9,339 1324.5,338.65 1325.1,338.65 C 1325.7,338.65 1326.3,339.11 1326.4,339.42 C 1326.6,339.73 1326.9,340.85 1327.1,341.58 C 1327.3,342.24 1327.6,343.85 1327.8,344.72 C 1328.1,345.48 1328.3,346.25 1328.4,347.05 C 1328.8,348.48 1328.9,348.76 1329.9,350.19 C 1330.9,351.59 1332.5,353.4 1335.1,353.4 C 1337.2,353.4 1337.2,351.62 1337.2,350.96 C 1337.2,350.09 1337.1,349.64 1336.6,347.68 L 1335.1,341.82 z "
         style="fill:#ff0000;stroke-width:0" /><path
         id="path3241"
         d="M 1370.7,352.32 L 1370.6,352.43 L 1370.6,352.53 L 1370.5,352.64 L 1370.4,352.74 L 1370.3,352.84 L 1370.3,352.94 L 1370.2,353.03 L 1370.1,353.13 L 1370,353.22 L 1369.9,353.31 L 1369.8,353.39 L 1369.7,353.48 L 1369.6,353.56 L 1369.5,353.63 L 1369.4,353.71 L 1369.3,353.78 L 1369.2,353.85 L 1369,353.91 L 1368.9,353.97 L 1368.8,354.03 L 1368.7,354.08 L 1368.6,354.13 L 1368.4,354.18 L 1368.3,354.22 L 1368.2,354.26 L 1368,354.29 L 1367.9,354.31 L 1367.7,354.34 L 1367.6,354.36 L 1367.4,354.37 L 1367.3,354.38 L 1367.1,354.38 L 1367.1,353.4 C 1369.6,353.4 1370.2,350.75 1370.2,350.37 C 1370.2,350.23 1370.2,349.98 1370.1,349.88 L 1368.5,343.36 C 1368.2,342.38 1367.5,341.68 1366.7,341.02 C 1366.4,340.74 1365,339.63 1363.5,339.63 C 1362.2,339.63 1360.9,340.54 1360.9,343.01 C 1360.9,344.86 1362,348.7 1362.8,350.09 C 1364.4,352.88 1366.2,353.4 1367.1,353.4 L 1367.1,354.38 C 1362.7,354.38 1358.1,349.46 1358.1,344.44 C 1358.1,341.06 1360.4,338.65 1363.4,338.65 C 1365.3,338.65 1366.9,339.73 1368.3,341.09 C 1369,339 1371,338.65 1371.9,338.65 C 1373.2,338.65 1374.1,339.42 1374.7,340.5 C 1375.5,341.86 1375.9,343.85 1375.9,343.98 C 1375.9,344.44 1375.5,344.44 1375.3,344.44 C 1374.9,344.44 1374.8,344.3 1374.6,343.36 C 1374.2,341.68 1373.5,339.63 1372,339.63 C 1371.1,339.63 1370.9,340.39 1370.9,341.34 C 1370.9,341.93 1371.2,343.18 1371.4,344.09 C 1371.7,345.03 1372,346.46 1372.2,347.23 C 1372.5,348.52 1372.6,348.73 1372.9,349.88 C 1373.1,350.79 1373.5,352.43 1373.5,352.6 C 1373.5,353.37 1372.9,353.71 1372.3,353.71 C 1371.7,353.71 1370.9,353.3 1370.7,352.32 z "
         style="fill:#ff0000;stroke-width:0" /><path
         id="path3243"
         d="M 1385.7,342.7 L 1385.6,342.58 L 1385.6,342.47 L 1385.6,342.35 L 1385.5,342.22 L 1385.5,342.1 L 1385.4,341.97 L 1385.3,341.85 L 1385.3,341.72 L 1385.2,341.59 L 1385.1,341.46 L 1385,341.33 L 1385,341.21 L 1384.9,341.08 L 1384.8,340.96 L 1384.7,340.84 L 1384.6,340.72 L 1384.5,340.6 L 1384.4,340.49 L 1384.2,340.39 L 1384.1,340.29 L 1384,340.19 L 1383.9,340.1 L 1383.8,340.02 L 1383.6,339.94 L 1383.5,339.87 L 1383.3,339.81 L 1383.2,339.76 L 1383,339.71 L 1382.9,339.68 L 1382.7,339.65 L 1382.6,339.63 L 1382.4,339.63 C 1382.3,339.63 1381.3,339.63 1380.5,340.12 C 1381.9,340.57 1382.1,341.82 1382.1,342.04 C 1382.1,342.8 1381.5,343.32 1380.7,343.32 C 1379.7,343.32 1378.7,342.49 1378.7,341.2 C 1378.7,339.45 1380.6,338.65 1382.3,338.65 C 1383.9,338.65 1385.4,339.66 1386.2,341.13 C 1387.1,339.28 1389,338.65 1390.4,338.65 C 1394.4,338.65 1396.5,343.01 1396.5,343.98 C 1396.5,344.44 1396.1,344.44 1396,344.44 C 1395.5,344.44 1395.4,344.27 1395.3,343.85 C 1394.6,341.44 1392.5,339.63 1390.5,339.63 C 1389.1,339.63 1388.4,340.57 1388.4,341.89 C 1388.4,342.8 1389.2,345.97 1390.2,349.84 C 1390.9,352.53 1392.5,353.4 1393.6,353.4 C 1393.7,353.4 1394.8,353.4 1395.5,352.91 C 1394.4,352.6 1394,351.62 1394,351 C 1394,350.23 1394.6,349.7 1395.4,349.7 C 1396.2,349.7 1397.3,350.37 1397.3,351.83 C 1397.3,353.79 1395.1,354.38 1393.7,354.38 C 1392,354.38 1390.6,353.23 1389.8,351.9 C 1389.2,353.33 1387.6,354.38 1385.6,354.38 C 1381.7,354.38 1379.5,350.09 1379.5,349.04 C 1379.5,348.59 1380,348.59 1380.1,348.59 C 1380.5,348.59 1380.6,348.73 1380.7,349.18 C 1381.6,351.9 1383.8,353.4 1385.5,353.4 C 1386.7,353.4 1387.6,352.77 1387.6,351.1 C 1387.6,350.4 1387.2,348.66 1386.9,347.47 L 1385.7,342.7 z "
         style="fill:#ff0000;stroke-width:0" /></g>  </g>
</svg>
